<?xml version="1.0" encoding="UTF-8" standalone="no"?>
<svg
   xmlns:dc="http://purl.org/dc/elements/1.1/"
   xmlns:cc="http://creativecommons.org/ns#"
   xmlns:rdf="http://www.w3.org/1999/02/22-rdf-syntax-ns#"
   xmlns:svg="http://www.w3.org/2000/svg"
   xmlns="http://www.w3.org/2000/svg"
   height="172.0002"
   width="172.0002"
   viewBox="-15 -190 172.0002 172.0002"
   version="1.1"
   id="ProfielUIC60E2">
  <metadata
     id="metadata10">
    <rdf:RDF>
      <cc:Work
         rdf:about="">
        <dc:format>image/svg+xml</dc:format>
        <dc:type
           rdf:resource="http://purl.org/dc/dcmitype/StillImage" />
        <dc:title></dc:title>
      </cc:Work>
    </rdf:RDF>
  </metadata>
  <defs
     id="defs8" />
  <desc
     id="desc2">
	Op basis van 'Profilehandbuch_Section_Programme', van VoestAlpine Schienen GMBH
	</desc>
  <path
     d="m -1.9999008,-190 a 2,2 0 0 0 -2,2 v 5.81552 a 4,4 0 0 0 3.71501198,3.98984 l 15.73981082,1.12427 a 40,40 0 0 1 10.819841,2.30661 l 28.223767,10.26319 a 7,7 0 0 1 4.263605,4.41055 35,35 0 0 1 0.7875,2.81061 120,120 0 0 1 3.200464,27.52941 v 32.000001 a 120,120 0 0 1 -3.200465,27.529412 35,35 0 0 1 -0.787499,2.810609 7,7 0 0 1 -4.263605,4.41055 l -18.576167,6.75497 a 3,3 0 0 0 -1.971027,2.969193 l 1.048763,20.975266 a 13,13 0 0 0 9.972669,11.99639 80,80 0 0 0 15.799331,2.129409 300,300 0 0 0 20.456,0 80,80 0 0 0 15.79933,-2.129409 13,13 0 0 0 9.972671,-11.99639 l 1.04876,-20.975266 a 3,3 0 0 0 -1.97102,-2.969193 l -18.576172,-6.75497 a 7,7 0 0 1 -4.263605,-4.41055 35,35 0 0 1 -0.7875,-2.810609 120,120 0 0 1 -3.200464,-27.529412 V -129.75 a 120,120 0 0 1 3.200464,-27.52941 35,35 0 0 1 0.7875,-2.81061 7,7 0 0 1 4.263605,-4.41055 l 28.223772,-10.26319 a 40,40 0 0 1 10.81984,-2.30661 l 15.73981,-1.12427 a 4,4 0 0 0 3.71501,-3.98984 V -188 a 2,2 0 0 0 -2,-2 z"
     style="fill:#ffffff;fill-opacity:1;fill-rule:nonzero;stroke:none"
     id="Profiel" />
</svg>
