<?xml version="1.0" encoding="UTF-8" standalone="no"?>
<!-- Created with Inkscape (http://www.inkscape.org/) -->

<svg
   xmlns:dc="http://purl.org/dc/elements/1.1/"
   xmlns:cc="http://creativecommons.org/ns#"
   xmlns:rdf="http://www.w3.org/1999/02/22-rdf-syntax-ns#"
   xmlns:svg="http://www.w3.org/2000/svg"
   xmlns="http://www.w3.org/2000/svg"
   xmlns:sodipodi="http://sodipodi.sourceforge.net/DTD/sodipodi-0.dtd"
   xmlns:inkscape="http://www.inkscape.org/namespaces/inkscape"
   width="96"
   height="96"
   viewBox="0 0 25.399999 25.400001"
   version="1.1"
   id="svg8"
   inkscape:version="0.92.3 (2405546, 2018-03-11)"
   sodipodi:docname="edit.svg">
  <defs
     id="defs2" />
  <sodipodi:namedview
     id="base"
     pagecolor="#ffffff"
     bordercolor="#666666"
     borderopacity="1.0"
     inkscape:pageopacity="0.0"
     inkscape:pageshadow="2"
     inkscape:zoom="5.6"
     inkscape:cx="36.33895"
     inkscape:cy="56.923031"
     inkscape:document-units="mm"
     inkscape:current-layer="layer1"
     showgrid="true"
     units="px"
     inkscape:window-width="1920"
     inkscape:window-height="1015"
     inkscape:window-x="0"
     inkscape:window-y="0"
     inkscape:window-maximized="1">
    <inkscape:grid
       type="xygrid"
       id="grid3713"
       spacingx="0.26458333"
       empspacing="4" />
  </sodipodi:namedview>
  <metadata
     id="metadata5">
    <rdf:RDF>
      <cc:Work
         rdf:about="">
        <dc:format>image/svg+xml</dc:format>
        <dc:type
           rdf:resource="http://purl.org/dc/dcmitype/StillImage" />
        <dc:title />
        <cc:license
           rdf:resource="http://creativecommons.org/licenses/by-nc/4.0/" />
      </cc:Work>
      <cc:License
         rdf:about="http://creativecommons.org/licenses/by-nc/4.0/">
        <cc:permits
           rdf:resource="http://creativecommons.org/ns#Reproduction" />
        <cc:permits
           rdf:resource="http://creativecommons.org/ns#Distribution" />
        <cc:requires
           rdf:resource="http://creativecommons.org/ns#Notice" />
        <cc:requires
           rdf:resource="http://creativecommons.org/ns#Attribution" />
        <cc:prohibits
           rdf:resource="http://creativecommons.org/ns#CommercialUse" />
        <cc:permits
           rdf:resource="http://creativecommons.org/ns#DerivativeWorks" />
      </cc:License>
    </rdf:RDF>
  </metadata>
  <g
     inkscape:label="Layer 1"
     inkscape:groupmode="layer"
     id="layer1"
     transform="translate(0,-271.59998)">
    <path
       style="fill:#000006;fill-opacity:1;stroke-width:0.10582957"
       d="m 10.550575,292.43633 a 0.84663647,0.84663647 0 0 0 0.0227,-0.025 0.84663647,0.84663647 0 0 0 0.02659,-0.0294 0.84663647,0.84663647 0 0 0 0.02878,-0.0373 0.84663647,0.84663647 0 0 0 0.02263,-0.0311 0.84663647,0.84663647 0 0 0 0.02093,-0.0331 0.84663647,0.84663647 0 0 0 0.02414,-0.0405 0.84663647,0.84663647 0 0 0 0.01747,-0.0353 0.84663647,0.84663647 0 0 0 0.01812,-0.0389 0.84663647,0.84663647 0 0 0 0.01652,-0.044 0.84663647,0.84663647 0 0 0 0.01194,-0.0347 0.84663647,0.84663647 0 0 0 0.01298,-0.049 0.84663647,0.84663647 0 0 0 0.0077,-0.0322 0.84663647,0.84663647 0 0 0 0.0081,-0.0499 0.84663647,0.84663647 0 0 0 0.0048,-0.0346 0.84663647,0.84663647 0 0 0 0.0026,-0.0476 0.84663647,0.84663647 0 0 0 0.0013,-0.0376 0.84663647,0.84663647 0 0 0 -0.0016,-0.0435 0.84663647,0.84663647 0 0 0 -0.0027,-0.0418 0.84663647,0.84663647 0 0 0 -0.0064,-0.045 0.84663647,0.84663647 0 0 0 -0.0067,-0.0392 0.84663647,0.84663647 0 0 0 -0.0053,-0.0234 0.84663647,0.84663647 0 0 0 -0.0056,-0.0247 0.84663647,0.84663647 0 0 0 -0.0065,-0.0219 0.84663647,0.84663647 0 0 0 -0.01259,-0.0392 0.84663647,0.84663647 0 0 0 -0.01519,-0.0401 0.84663647,0.84663647 0 0 0 -0.01829,-0.0416 0.84663647,0.84663647 0 0 0 -0.0162,-0.0323 0.84663647,0.84663647 0 0 0 -0.02317,-0.0408 0.84663647,0.84663647 0 0 0 -0.02181,-0.0364 0.84663647,0.84663647 0 0 0 -0.02322,-0.0317 0.84663647,0.84663647 0 0 0 -0.0276,-0.0347 0.84663647,0.84663647 0 0 0 -0.03266,-0.0369 0.84663647,0.84663647 0 0 0 -0.01375,-0.0149 0.84663647,0.84663647 0 0 0 -0.0083,-0.009 l -4.7893605,-4.78936 a 0.84663647,0.84663647 0 0 0 -0.017963,-0.0165 0.84663647,0.84663647 0 0 0 -0.028028,-0.0252 0.84663647,0.84663647 0 0 0 -0.036151,-0.0305 0.84663647,0.84663647 0 0 0 -0.031707,-0.0232 0.84663647,0.84663647 0 0 0 -0.034599,-0.0233 0.84663647,0.84663647 0 0 0 -0.038105,-0.0227 0.84663647,0.84663647 0 0 0 -0.035666,-0.0187 0.84663647,0.84663647 0 0 0 -0.038818,-0.0179 0.84663647,0.84663647 0 0 0 -0.041455,-0.0167 0.84663647,0.84663647 0 0 0 -0.042071,-0.0146 0.84663647,0.84663647 0 0 0 -0.024553,-0.008 0.84663647,0.84663647 0 0 0 -0.00911,-0.003 0.84663647,0.84663647 0 0 0 -0.026176,-0.006 0.84663647,0.84663647 0 0 0 -0.04796,-0.0102 0.84663647,0.84663647 0 0 0 -0.038328,-0.005 0.84663647,0.84663647 0 0 0 -0.044421,-0.005 0.84663647,0.84663647 0 0 0 -0.044222,-0.002 0.84663647,0.84663647 0 0 0 -0.039328,-4.4e-4 0.84663647,0.84663647 0 0 0 -0.045297,0.003 0.84663647,0.84663647 0 0 0 -0.039836,0.004 0.84663647,0.84663647 0 0 0 -0.042004,0.007 0.84663647,0.84663647 0 0 0 -0.041902,0.008 0.84663647,0.84663647 0 0 0 -0.040147,0.0109 0.84663647,0.84663647 0 0 0 -0.040902,0.0123 0.84663647,0.84663647 0 0 0 -0.039214,0.0149 0.84663647,0.84663647 0 0 0 -0.039186,0.0158 0.84663647,0.84663647 0 0 0 -0.036418,0.0183 0.84663647,0.84663647 0 0 0 -0.040543,0.0218 0.84663647,0.84663647 0 0 0 -0.03363,0.0214 0.84663647,0.84663647 0 0 0 -0.034457,0.0228 0.84663647,0.84663647 0 0 0 -0.034662,0.027 0.84663647,0.84663647 0 0 0 -0.035942,0.0298 0.84663647,0.84663647 0 0 0 -0.011102,0.01 0.84663647,0.84663647 0 0 0 -0.02255,0.0209 0.84663647,0.84663647 0 0 0 -0.016341,0.018 0.84663647,0.84663647 0 0 0 -0.025208,0.028 0.84663647,0.84663647 0 0 0 -0.029939,0.0367 0.84663647,0.84663647 0 0 0 -0.023299,0.0317 0.84663647,0.84663647 0 0 0 -0.023016,0.035 0.84663647,0.84663647 0 0 0 -0.022824,0.038 0.84663647,0.84663647 0 0 0 -0.018738,0.0357 0.84663647,0.84663647 0 0 0 -0.017977,0.0387 0.84663647,0.84663647 0 0 0 -0.016717,0.0415 0.84663647,0.84663647 0 0 0 -0.014537,0.042 0.84663647,0.84663647 0 0 0 -0.00764,0.0246 0.84663647,0.84663647 0 0 0 -0.00229,0.009 l -1.7530179,6.54232 a 0.84663647,0.84663647 0 0 0 -0.00488,0.0224 0.84663647,0.84663647 0 0 0 -0.00847,0.0398 0.84663647,0.84663647 0 0 0 -0.00718,0.0443 0.84663647,0.84663647 0 0 0 -0.00445,0.039 0.84663647,0.84663647 0 0 0 -0.00276,0.0466 0.84663647,0.84663647 0 0 0 -3.96e-4,0.0367 0.84663647,0.84663647 0 0 0 0.00202,0.0488 0.84663647,0.84663647 0 0 0 0.00303,0.035 0.84663647,0.84663647 0 0 0 0.00674,0.0479 0.84663647,0.84663647 0 0 0 0.00858,0.0449 0.84663647,0.84663647 0 0 0 0.00495,0.0216 0.84663647,0.84663647 0 0 0 0.00283,0.0113 0.84663647,0.84663647 0 0 0 0.010366,0.032 0.84663647,0.84663647 0 0 0 0.012134,0.0382 0.84663647,0.84663647 0 0 0 0.015514,0.038 0.84663647,0.84663647 0 0 0 0.018668,0.0427 0.84663647,0.84663647 0 0 0 0.017961,0.0338 0.84663647,0.84663647 0 0 0 0.021326,0.038 0.84663647,0.84663647 0 0 0 0.024303,0.0356 0.84663647,0.84663647 0 0 0 0.02443,0.0343 0.84663647,0.84663647 0 0 0 0.029324,0.035 0.84663647,0.84663647 0 0 0 0.024042,0.0283 0.84663647,0.84663647 0 0 0 0.033764,0.0335 0.84663647,0.84663647 0 0 0 0.027464,0.026 0.84663647,0.84663647 0 0 0 0.034104,0.0284 0.84663647,0.84663647 0 0 0 0.032329,0.0253 0.84663647,0.84663647 0 0 0 0.032265,0.0224 0.84663647,0.84663647 0 0 0 0.039718,0.0243 0.84663647,0.84663647 0 0 0 0.032718,0.0173 0.84663647,0.84663647 0 0 0 0.04196,0.0209 0.84663647,0.84663647 0 0 0 0.038559,0.0155 0.84663647,0.84663647 0 0 0 0.041514,0.0155 0.84663647,0.84663647 0 0 0 0.020153,0.006 0.84663647,0.84663647 0 0 0 0.026156,0.008 0.84663647,0.84663647 0 0 0 0.022366,0.005 0.84663647,0.84663647 0 0 0 0.039754,0.008 0.84663647,0.84663647 0 0 0 0.044237,0.007 0.84663647,0.84663647 0 0 0 0.038884,0.004 0.84663647,0.84663647 0 0 0 0.046612,0.003 0.84663647,0.84663647 0 0 0 0.03725,4.8e-4 0.84663647,0.84663647 0 0 0 0.04575,-0.002 0.84663647,0.84663647 0 0 0 0.03998,-0.003 0.84663647,0.84663647 0 0 0 0.044668,-0.006 0.84663647,0.84663647 0 0 0 0.045637,-0.009 0.84663647,0.84663647 0 0 0 0.021701,-0.005 0.84663647,0.84663647 0 0 0 0.011667,-0.003 l 6.5423824,-1.75291 a 0.84663647,0.84663647 0 0 0 0.02141,-0.007 0.84663647,0.84663647 0 0 0 0.03917,-0.0126 0.84663647,0.84663647 0 0 0 0.04007,-0.0152 0.84663647,0.84663647 0 0 0 0.04166,-0.0183 0.84663647,0.84663647 0 0 0 0.03236,-0.0163 0.84663647,0.84663647 0 0 0 0.04093,-0.0231 0.84663647,0.84663647 0 0 0 0.03571,-0.0226 0.84663647,0.84663647 0 0 0 0.03232,-0.0227 0.84663647,0.84663647 0 0 0 0.03479,-0.0273 0.84663647,0.84663647 0 0 0 0.03734,-0.0322 0.84663647,0.84663647 0 0 0 0.01485,-0.0137 0.84663647,0.84663647 0 0 0 0.0089,-0.008 z"
       id="path3715"
       inkscape:connector-curvature="0" />
    <rect
       style="fill:#000006;fill-opacity:1;stroke:none;stroke-width:0.25618166"
       id="rect883"
       width="8.4666662"
       height="15.874994"
       x="205.77744"
       y="181.33165"
       ry="1.0583377"
       transform="rotate(45)" />
  </g>
</svg>
