<?xml version="1.0" encoding="UTF-8" standalone="no"?>
<!-- Created with Inkscape (http://www.inkscape.org/) -->

<svg
   xmlns:dc="http://purl.org/dc/elements/1.1/"
   xmlns:cc="http://creativecommons.org/ns#"
   xmlns:rdf="http://www.w3.org/1999/02/22-rdf-syntax-ns#"
   xmlns:svg="http://www.w3.org/2000/svg"
   xmlns="http://www.w3.org/2000/svg"
   xmlns:sodipodi="http://sodipodi.sourceforge.net/DTD/sodipodi-0.dtd"
   xmlns:inkscape="http://www.inkscape.org/namespaces/inkscape"
   width="96"
   height="96"
   viewBox="0 0 25.399999 25.400001"
   version="1.1"
   id="svg8"
   inkscape:version="0.92.3 (2405546, 2018-03-11)"
   sodipodi:docname="edit.svg">
  <defs
     id="defs2" />
  <sodipodi:namedview
     id="base"
     pagecolor="#ffffff"
     bordercolor="#666666"
     borderopacity="1.0"
     inkscape:pageopacity="0.0"
     inkscape:pageshadow="2"
     inkscape:zoom="5.6"
     inkscape:cx="86.696093"
     inkscape:cy="31.840808"
     inkscape:document-units="mm"
     inkscape:current-layer="layer1"
     showgrid="true"
     units="px"
     inkscape:window-width="1920"
     inkscape:window-height="1015"
     inkscape:window-x="0"
     inkscape:window-y="0"
     inkscape:window-maximized="1">
    <inkscape:grid
       type="xygrid"
       id="grid3713"
       spacingx="0.26458333"
       empspacing="4" />
  </sodipodi:namedview>
  <metadata
     id="metadata5">
    <rdf:RDF>
      <cc:Work
         rdf:about="">
        <dc:format>image/svg+xml</dc:format>
        <dc:type
           rdf:resource="http://purl.org/dc/dcmitype/StillImage" />
        <dc:title></dc:title>
        <cc:license
           rdf:resource="http://creativecommons.org/licenses/by-nc/4.0/" />
      </cc:Work>
      <cc:License
         rdf:about="http://creativecommons.org/licenses/by-nc/4.0/">
        <cc:permits
           rdf:resource="http://creativecommons.org/ns#Reproduction" />
        <cc:permits
           rdf:resource="http://creativecommons.org/ns#Distribution" />
        <cc:requires
           rdf:resource="http://creativecommons.org/ns#Notice" />
        <cc:requires
           rdf:resource="http://creativecommons.org/ns#Attribution" />
        <cc:prohibits
           rdf:resource="http://creativecommons.org/ns#CommercialUse" />
        <cc:permits
           rdf:resource="http://creativecommons.org/ns#DerivativeWorks" />
      </cc:License>
    </rdf:RDF>
  </metadata>
  <g
     inkscape:label="Layer 1"
     inkscape:groupmode="layer"
     id="layer1"
     transform="translate(0,-271.59998)">
    <g
       id="g892"
       transform="rotate(45,10.308119,283.30932)"
       inkscape:transform-center-y="-1.3877035"
       inkscape:transform-center-x="-1.3876049">
      <path
         inkscape:connector-curvature="0"
         id="path3715"
         d="m 16.933333,289.59165 a 0.84663647,0.84663647 0 0 0 -0.0016,-0.0337 0.84663647,0.84663647 0 0 0 -0.002,-0.0396 0.84663647,0.84663647 0 0 0 -0.006,-0.0467 0.84663647,0.84663647 0 0 0 -0.006,-0.038 0.84663647,0.84663647 0 0 0 -0.0086,-0.0382 0.84663647,0.84663647 0 0 0 -0.01156,-0.0457 0.84663647,0.84663647 0 0 0 -0.01259,-0.0373 0.84663647,0.84663647 0 0 0 -0.01468,-0.0403 0.84663647,0.84663647 0 0 0 -0.01944,-0.0428 0.84663647,0.84663647 0 0 0 -0.01611,-0.033 0.84663647,0.84663647 0 0 0 -0.02544,-0.0438 0.84663647,0.84663647 0 0 0 -0.01737,-0.0282 0.84663647,0.84663647 0 0 0 -0.02956,-0.041 0.84663647,0.84663647 0 0 0 -0.02108,-0.0279 0.84663647,0.84663647 0 0 0 -0.03185,-0.0355 0.84663647,0.84663647 0 0 0 -0.02564,-0.0275 0.84663647,0.84663647 0 0 0 -0.03185,-0.0296 0.84663647,0.84663647 0 0 0 -0.03145,-0.0277 0.84663647,0.84663647 0 0 0 -0.03636,-0.0273 0.84663647,0.84663647 0 0 0 -0.03244,-0.023 0.84663647,0.84663647 0 0 0 -0.02027,-0.0128 0.84663647,0.84663647 0 0 0 -0.02148,-0.0135 0.84663647,0.84663647 0 0 0 -0.02003,-0.0109 0.84663647,0.84663647 0 0 0 -0.0366,-0.0188 0.84663647,0.84663647 0 0 0 -0.03908,-0.0176 0.84663647,0.84663647 0 0 0 -0.04237,-0.0165 0.84663647,0.84663647 0 0 0 -0.03431,-0.0114 0.84663647,0.84663647 0 0 0 -0.04526,-0.0125 0.84663647,0.84663647 0 0 0 -0.04114,-0.0103 0.84663647,0.84663647 0 0 0 -0.03884,-0.006 0.84663647,0.84663647 0 0 0 -0.04403,-0.005 0.84663647,0.84663647 0 0 0 -0.04919,-0.003 0.84663647,0.84663647 0 0 0 -0.02024,-8e-4 0.84663647,0.84663647 0 0 0 -0.01219,-4.1e-4 H 9.3135041 a 0.84663647,0.84663647 0 0 0 -0.024403,10e-4 0.84663647,0.84663647 0 0 0 -0.037638,0.002 0.84663647,0.84663647 0 0 0 -0.047126,0.004 0.84663647,0.84663647 0 0 0 -0.03884,0.006 0.84663647,0.84663647 0 0 0 -0.040931,0.008 0.84663647,0.84663647 0 0 0 -0.042989,0.0109 0.84663647,0.84663647 0 0 0 -0.03844,0.012 0.84663647,0.84663647 0 0 0 -0.040097,0.0148 0.84663647,0.84663647 0 0 0 -0.041126,0.0175 0.84663647,0.84663647 0 0 0 -0.040097,0.0194 0.84663647,0.84663647 0 0 0 -0.022723,0.012 0.84663647,0.84663647 0 0 0 -0.00888,0.004 0.84663647,0.84663647 0 0 0 -0.022518,0.0145 0.84663647,0.84663647 0 0 0 -0.041126,0.0267 0.84663647,0.84663647 0 0 0 -0.030804,0.0234 0.84663647,0.84663647 0 0 0 -0.03492,0.0279 0.84663647,0.84663647 0 0 0 -0.032439,0.0301 0.84663647,0.84663647 0 0 0 -0.028118,0.0275 0.84663647,0.84663647 0 0 0 -0.029959,0.0341 0.84663647,0.84663647 0 0 0 -0.025637,0.0307 0.84663647,0.84663647 0 0 0 -0.024803,0.0346 0.84663647,0.84663647 0 0 0 -0.023958,0.0353 0.84663647,0.84663647 0 0 0 -0.020677,0.0361 0.84663647,0.84663647 0 0 0 -0.020244,0.0376 0.84663647,0.84663647 0 0 0 -0.017157,0.0383 0.84663647,0.84663647 0 0 0 -0.016517,0.0389 0.84663647,0.84663647 0 0 0 -0.012803,0.0387 0.84663647,0.84663647 0 0 0 -0.013236,0.0441 0.84663647,0.84663647 0 0 0 -0.00866,0.0389 0.84663647,0.84663647 0 0 0 -0.00823,0.0405 0.84663647,0.84663647 0 0 0 -0.00542,0.0436 0.84663647,0.84663647 0 0 0 -0.00433,0.0465 0.84663647,0.84663647 0 0 0 -8.004e-4,0.0149 0.84663647,0.84663647 0 0 0 -0.00119,0.0307 0.84663647,0.84663647 0 0 0 0.00119,0.0243 0.84663647,0.84663647 0 0 0 0.00195,0.0376 0.84663647,0.84663647 0 0 0 0.00476,0.0471 0.84663647,0.84663647 0 0 0 0.00595,0.0389 0.84663647,0.84663647 0 0 0 0.00845,0.041 0.84663647,0.84663647 0 0 0 0.010722,0.043 0.84663647,0.84663647 0 0 0 0.012001,0.0385 0.84663647,0.84663647 0 0 0 0.014676,0.0401 0.84663647,0.84663647 0 0 0 0.017558,0.0412 0.84663647,0.84663647 0 0 0 0.019442,0.04 0.84663647,0.84663647 0 0 0 0.012001,0.0228 0.84663647,0.84663647 0 0 0 0.00476,0.008 l 3.3865483,5.86569 a 0.84663647,0.84663647 0 0 0 0.0124,0.0193 0.84663647,0.84663647 0 0 0 0.02212,0.0341 0.84663647,0.84663647 0 0 0 0.02624,0.0364 0.84663647,0.84663647 0 0 0 0.02441,0.0307 0.84663647,0.84663647 0 0 0 0.031,0.0349 0.84663647,0.84663647 0 0 0 0.02564,0.0262 0.84663647,0.84663647 0 0 0 0.03596,0.0331 0.84663647,0.84663647 0 0 0 0.02688,0.0226 0.84663647,0.84663647 0 0 0 0.03863,0.0291 0.84663647,0.84663647 0 0 0 0.03784,0.0257 0.84663647,0.84663647 0 0 0 0.0188,0.0118 0.84663647,0.84663647 0 0 0 0.01,0.006 0.84663647,0.84663647 0 0 0 0.02996,0.0153 0.84663647,0.84663647 0 0 0 0.03556,0.0184 0.84663647,0.84663647 0 0 0 0.03784,0.0159 0.84663647,0.84663647 0 0 0 0.0434,0.017 0.84663647,0.84663647 0 0 0 0.0366,0.0112 0.84663647,0.84663647 0 0 0 0.04196,0.0118 0.84663647,0.84663647 0 0 0 0.04237,0.008 0.84663647,0.84663647 0 0 0 0.04155,0.007 0.84663647,0.84663647 0 0 0 0.04547,0.004 0.84663647,0.84663647 0 0 0 0.037,0.003 0.84663647,0.84663647 0 0 0 0.04754,-2.1e-4 0.84663647,0.84663647 0 0 0 0.03784,-0.001 0.84663647,0.84663647 0 0 0 0.04423,-0.004 0.84663647,0.84663647 0 0 0 0.04072,-0.005 0.84663647,0.84663647 0 0 0 0.03863,-0.007 0.84663647,0.84663647 0 0 0 0.04527,-0.0109 0.84663647,0.84663647 0 0 0 0.03537,-0.0109 0.84663647,0.84663647 0 0 0 0.04444,-0.0149 0.84663647,0.84663647 0 0 0 0.03823,-0.0163 0.84663647,0.84663647 0 0 0 0.04031,-0.0184 0.84663647,0.84663647 0 0 0 0.0182,-0.0103 0.84663647,0.84663647 0 0 0 0.02419,-0.0128 0.84663647,0.84663647 0 0 0 0.01923,-0.0124 0.84663647,0.84663647 0 0 0 0.03412,-0.0221 0.84663647,0.84663647 0 0 0 0.03636,-0.0262 0.84663647,0.84663647 0 0 0 0.03059,-0.0244 0.84663647,0.84663647 0 0 0 0.03492,-0.031 0.84663647,0.84663647 0 0 0 0.02668,-0.026 0.84663647,0.84663647 0 0 0 0.031,-0.0337 0.84663647,0.84663647 0 0 0 0.02584,-0.0307 0.84663647,0.84663647 0 0 0 0.02707,-0.0361 0.84663647,0.84663647 0 0 0 0.02604,-0.0385 0.84663647,0.84663647 0 0 0 0.01179,-0.0189 0.84663647,0.84663647 0 0 0 0.0062,-0.0103 l 3.386667,-5.86566 a 0.84663647,0.84663647 0 0 0 0.01028,-0.02 0.84663647,0.84663647 0 0 0 0.0188,-0.0366 0.84663647,0.84663647 0 0 0 0.01756,-0.0391 0.84663647,0.84663647 0 0 0 0.01651,-0.0424 0.84663647,0.84663647 0 0 0 0.01136,-0.0344 0.84663647,0.84663647 0 0 0 0.01259,-0.0453 0.84663647,0.84663647 0 0 0 0.0093,-0.0412 0.84663647,0.84663647 0 0 0 0.0068,-0.0389 0.84663647,0.84663647 0 0 0 0.0053,-0.0439 0.84663647,0.84663647 0 0 0 0.0036,-0.0492 0.84663647,0.84663647 0 0 0 8e-4,-0.0202 0.84663647,0.84663647 0 0 0 4.01e-4,-0.0122 z"
         style="fill:#ffdd55;fill-opacity:1;stroke-width:0.10582957" />
      <rect
         ry="1.0583377"
         y="271.59998"
         x="8.4666662"
         height="15.874994"
         width="8.4666662"
         id="rect883"
         style="fill:#ffdd55;fill-opacity:1;stroke:none;stroke-width:0.25618166" />
    </g>
  </g>
</svg>
