<?xml version="1.0" encoding="UTF-8" standalone="no"?>
<!-- Created with Inkscape (http://www.inkscape.org/) -->

<svg
   xmlns:dc="http://purl.org/dc/elements/1.1/"
   xmlns:cc="http://creativecommons.org/ns#"
   xmlns:rdf="http://www.w3.org/1999/02/22-rdf-syntax-ns#"
   xmlns:svg="http://www.w3.org/2000/svg"
   xmlns="http://www.w3.org/2000/svg"
   xmlns:sodipodi="http://sodipodi.sourceforge.net/DTD/sodipodi-0.dtd"
   xmlns:inkscape="http://www.inkscape.org/namespaces/inkscape"
   width="96"
   height="96"
   viewBox="0 0 25.399999 25.400001"
   version="1.1"
   id="svg8"
   inkscape:version="0.92.3 (2405546, 2018-03-11)"
   sodipodi:docname="nosmoke.svg">
  <defs
     id="defs2" />
  <sodipodi:namedview
     id="base"
     pagecolor="#ffffff"
     bordercolor="#666666"
     borderopacity="1.0"
     inkscape:pageopacity="0.0"
     inkscape:pageshadow="2"
     inkscape:zoom="5.6"
     inkscape:cx="18.252633"
     inkscape:cy="39.964981"
     inkscape:document-units="mm"
     inkscape:current-layer="layer1"
     showgrid="true"
     units="px"
     inkscape:window-width="1920"
     inkscape:window-height="1015"
     inkscape:window-x="0"
     inkscape:window-y="0"
     inkscape:window-maximized="1">
    <inkscape:grid
       type="xygrid"
       id="grid3713"
       spacingx="0.26458333"
       empspacing="4" />
  </sodipodi:namedview>
  <metadata
     id="metadata5">
    <rdf:RDF>
      <cc:Work
         rdf:about="">
        <dc:format>image/svg+xml</dc:format>
        <dc:type
           rdf:resource="http://purl.org/dc/dcmitype/StillImage" />
        <dc:title></dc:title>
        <cc:license
           rdf:resource="http://creativecommons.org/licenses/by-nc/4.0/" />
      </cc:Work>
      <cc:License
         rdf:about="http://creativecommons.org/licenses/by-nc/4.0/">
        <cc:permits
           rdf:resource="http://creativecommons.org/ns#Reproduction" />
        <cc:permits
           rdf:resource="http://creativecommons.org/ns#Distribution" />
        <cc:requires
           rdf:resource="http://creativecommons.org/ns#Notice" />
        <cc:requires
           rdf:resource="http://creativecommons.org/ns#Attribution" />
        <cc:prohibits
           rdf:resource="http://creativecommons.org/ns#CommercialUse" />
        <cc:permits
           rdf:resource="http://creativecommons.org/ns#DerivativeWorks" />
      </cc:License>
    </rdf:RDF>
  </metadata>
  <g
     inkscape:label="Layer 1"
     inkscape:groupmode="layer"
     id="layer1"
     transform="translate(0,-271.59998)">
    <path
       style="fill:#feffff;stroke:none;stroke-width:0.26458332px;stroke-linecap:butt;stroke-linejoin:miter;stroke-opacity:1;fill-opacity:1"
       d="m 6.3499999,285.35831 c -0.4119256,-0.19001 -0.7804393,-0.31527 -0.9638391,-0.50079 -0.2011183,-0.4061 -0.7043961,-0.55823 -0.9449402,-0.89772 -0.2022568,-0.25428 -0.4036309,-0.51429 -0.519717,-0.80314 -0.1228104,-0.31049 -0.3086828,-0.55896 -0.330729,-0.84919 0,-0.28393 0,-0.56787 0,-0.8518 0.1613625,-0.0909 0.3049189,-0.40992 0.425223,-0.4725 0.1077039,-0.1763 0.4299894,-0.33804 0.519717,-0.5198 0.1078387,-0.1183 0.3478525,-0.30219 0.7087052,-0.2834 0.2298007,0.11377 0.6102021,0.28852 0.8031991,0.2361 -0.029153,-0.46983 0.1413568,-0.89252 0.094494,-1.36653 0.019053,-0.37079 -0.058291,-0.77465 0.088868,-1.09829 0.1816677,-0.38919 0.550251,-0.81323 0.8560724,-1.1733 0.1969118,-0.32157 0.4998605,-0.42235 0.755952,-0.66149 0.428155,-0.006 0.939595,-0.1431 1.3236533,0.0459 0.3825381,0.14773 0.5476216,0.28054 0.8969579,0.52111 0.194693,0.42945 0.378487,0.18498 0.14174,-0.23623 -0.03357,-0.40964 -0.148657,-0.9229 0.0945,-1.27574 0.195649,-0.59733 0.651531,-1.05927 1.086691,-1.5119 0.484198,-0.24562 0.899443,-0.50976 1.415231,-0.56704 0.559428,-0.16946 1.165162,-0.0585 1.703059,0.0472 0.29902,0.14924 0.754957,0.40679 1.039447,0.6143 0.321121,0.2669 0.615428,0.50767 0.755971,0.70884 0.04202,-0.3996 0.318951,-0.83375 0.708706,-1.03947 0.581629,-0.33595 1.222013,-0.50009 1.842629,-0.7088 0.48089,-0.10949 1.05136,-0.13063 1.559907,-0.0501 0.549009,0.19102 0.890638,0.19427 1.322159,0.66435 0.250659,0.22215 0.299653,0.47696 0.519731,0.70874 0.225669,0.33238 0.238546,0.71689 0.33075,1.03951 -0.01717,0.4435 0.05884,0.91915 -0.102161,1.31814 0.07539,0.5746 -0.252378,0.59726 -0.323079,1.23333 -0.250631,0.36791 -0.245113,0.46307 -0.66148,0.6616 -0.388677,0.2293 -0.951499,0.27339 -1.464647,0.3779 -0.42623,0.0905 -0.91398,0.0293 -1.370163,0.0472 -0.360193,-0.075 -0.660394,-0.2455 -1.039446,-0.3778 0.22005,0.22394 0.196304,0.53469 0.188991,0.85051 -0.159717,0.5575 -0.542647,0.94339 -0.967773,1.30043 -0.489604,0.23462 -0.997598,0.50353 -1.582838,0.49954 -0.610234,-0.0333 -1.072522,-0.20309 -1.654379,-0.3353 -0.302408,-0.15995 -0.552206,-0.31477 -0.28347,0.0472 0.182967,0.19608 0.136913,0.57828 0.14175,0.94501 -0.210696,0.43782 -0.591642,0.64563 -0.992191,0.89768 -0.308716,0.17106 -0.698255,0.14474 -1.078752,0.1416 -0.384036,-0.001 -0.781127,0.0319 -1.094627,-0.1416 -0.3377823,-0.032 -0.8842345,-0.35919 -0.518325,0.25753 9.549e-4,0.53654 -0.1233188,0.80221 -0.4738575,1.15986 -0.1878586,0.21229 -0.4155472,0.52298 -0.498745,0.61943 -0.2131272,0.12865 -0.4089065,0.41763 -0.68243,0.46727 -0.1320507,0.23293 -0.4887479,0.34451 -0.8955278,0.3307 -0.2935917,-0.007 -0.5893222,0.0172 -0.8809868,-0.0191 z"
       id="path841"
       inkscape:connector-curvature="0" />
    <rect
       style="fill:#000000;fill-opacity:1;stroke:none;stroke-width:1.19892597;stroke-linecap:round;stroke-linejoin:round;stroke-miterlimit:4;stroke-dasharray:none;stroke-opacity:1"
       id="rect844"
       width="7.4083333"
       height="11.641676"
       x="2.1166666"
       y="285.35831" />
    <path
       style="fill:none;stroke:#cd5c5c;stroke-width:4.23333333;stroke-linecap:round;stroke-linejoin:miter;stroke-miterlimit:4;stroke-dasharray:none;stroke-opacity:1"
       d="M 23.283333,273.71665 2.1166666,294.88331"
       id="path819-5"
       inkscape:connector-curvature="0"
       sodipodi:nodetypes="cc" />
  </g>
</svg>
