<?xml version="1.0" encoding="UTF-8" standalone="no"?>
<!-- Created with Inkscape (http://www.inkscape.org/) -->

<svg
   xmlns:dc="http://purl.org/dc/elements/1.1/"
   xmlns:cc="http://creativecommons.org/ns#"
   xmlns:rdf="http://www.w3.org/1999/02/22-rdf-syntax-ns#"
   xmlns:svg="http://www.w3.org/2000/svg"
   xmlns="http://www.w3.org/2000/svg"
   xmlns:sodipodi="http://sodipodi.sourceforge.net/DTD/sodipodi-0.dtd"
   xmlns:inkscape="http://www.inkscape.org/namespaces/inkscape"
   width="96"
   height="96"
   viewBox="0 0 25.399999 25.400001"
   version="1.1"
   id="svg8"
   inkscape:version="0.92.3 (2405546, 2018-03-11)"
   sodipodi:docname="run.svg">
  <defs
     id="defs2" />
  <sodipodi:namedview
     id="base"
     pagecolor="#ffffff"
     bordercolor="#666666"
     borderopacity="1.0"
     inkscape:pageopacity="0.0"
     inkscape:pageshadow="2"
     inkscape:zoom="5.6"
     inkscape:cx="60.446093"
     inkscape:cy="31.840808"
     inkscape:document-units="mm"
     inkscape:current-layer="layer1"
     showgrid="true"
     units="px"
     inkscape:window-width="1920"
     inkscape:window-height="1015"
     inkscape:window-x="0"
     inkscape:window-y="0"
     inkscape:window-maximized="1">
    <inkscape:grid
       type="xygrid"
       id="grid3713"
       spacingx="0.26458333"
       empspacing="4" />
  </sodipodi:namedview>
  <metadata
     id="metadata5">
    <rdf:RDF>
      <cc:Work
         rdf:about="">
        <dc:format>image/svg+xml</dc:format>
        <dc:type
           rdf:resource="http://purl.org/dc/dcmitype/StillImage" />
        <dc:title />
        <cc:license
           rdf:resource="http://creativecommons.org/licenses/by-nc/4.0/" />
      </cc:Work>
      <cc:License
         rdf:about="http://creativecommons.org/licenses/by-nc/4.0/">
        <cc:permits
           rdf:resource="http://creativecommons.org/ns#Reproduction" />
        <cc:permits
           rdf:resource="http://creativecommons.org/ns#Distribution" />
        <cc:requires
           rdf:resource="http://creativecommons.org/ns#Notice" />
        <cc:requires
           rdf:resource="http://creativecommons.org/ns#Attribution" />
        <cc:prohibits
           rdf:resource="http://creativecommons.org/ns#CommercialUse" />
        <cc:permits
           rdf:resource="http://creativecommons.org/ns#DerivativeWorks" />
      </cc:License>
    </rdf:RDF>
  </metadata>
  <g
     inkscape:label="Layer 1"
     inkscape:groupmode="layer"
     id="layer1"
     transform="translate(0,-271.59998)">
    <path
       style="fill:#98fb98;fill-opacity:1;stroke-width:0.29072213"
       d="m 4.4424386,272.66332 a 2.3257771,2.3257771 0 0 0 -0.0926,0.005 2.3257771,2.3257771 0 0 0 -0.1090201,0.005 2.3257771,2.3257771 0 0 0 -0.1283245,0.0196 2.3257771,2.3257771 0 0 0 -0.1044784,0.0196 2.3257771,2.3257771 0 0 0 -0.1050472,0.0196 2.3257771,2.3257771 0 0 0 -0.1254898,0.0294 2.3257771,2.3257771 0 0 0 -0.1022025,0.0392 2.3257771,2.3257771 0 0 0 -0.1107269,0.0392 2.3257771,2.3257771 0 0 0 -0.1175344,0.049 2.3257771,2.3257771 0 0 0 -0.090834,0.049 2.3257771,2.3257771 0 0 0 -0.1203791,0.0687 2.3257771,2.3257771 0 0 0 -0.077788,0.0491 2.3257771,2.3257771 0 0 0 -0.1124238,0.0785 2.3257771,2.3257771 0 0 0 -0.076611,0.0589 2.3257771,2.3257771 0 0 0 -0.0977,0.0883 2.3257771,2.3257771 0 0 0 -0.075532,0.0687 2.3257771,2.3257771 0 0 0 -0.081221,0.0883 2.3257771,2.3257771 0 0 0 -0.07612,0.0883 2.3257771,2.3257771 0 0 0 -0.074943,0.10005 2.3257771,2.3257771 0 0 0 -0.063074,0.0883 2.3257771,2.3257771 0 0 0 -0.035215,0.0589 2.3257771,2.3257771 0 0 0 -0.036883,0.0589 2.3257771,2.3257771 0 0 0 -0.028349,0.0589 2.3257771,2.3257771 0 0 0 -0.051695,0.10006 2.3257771,2.3257771 0 0 0 -0.048262,0.10691 2.3257771,2.3257771 0 0 0 -0.045417,0.11673 2.3257771,2.3257771 0 0 0 -0.031194,0.0981 2.3257771,2.3257771 0 0 0 -0.034627,0.12458 2.3257771,2.3257771 0 0 0 -0.025504,0.11281 2.3257771,2.3257771 0 0 0 -0.018736,0.10692 2.3257771,2.3257771 0 0 0 -0.014812,0.12065 2.3257771,2.3257771 0 0 0 -0.010202,0.13537 2.3257771,2.3257771 0 0 0 -0.00171,0.0589 2.3257771,2.3257771 0 0 0 -0.00113,0.0294 v 18.60619 a 2.3257771,2.3257771 0 0 0 0.0034,0.0687 2.3257771,2.3257771 0 0 0 0.00511,0.10299 2.3257771,2.3257771 0 0 0 0.013046,0.12949 2.3257771,2.3257771 0 0 0 0.01648,0.10692 2.3257771,2.3257771 0 0 0 0.023248,0.1128 2.3257771,2.3257771 0 0 0 0.029526,0.11772 2.3257771,2.3257771 0 0 0 0.032959,0.10594 2.3257771,2.3257771 0 0 0 0.040316,0.10986 2.3257771,2.3257771 0 0 0 0.048262,0.1128 2.3257771,2.3257771 0 0 0 0.053362,0.10986 2.3257771,2.3257771 0 0 0 0.032959,0.0589 2.3257771,2.3257771 0 0 0 0.013046,0.0196 2.3257771,2.3257771 0 0 0 0.039728,0.0589 2.3257771,2.3257771 0 0 0 0.073275,0.11281 2.3257771,2.3257771 0 0 0 0.064153,0.0883 2.3257771,2.3257771 0 0 0 0.07661,0.0981 2.3257771,2.3257771 0 0 0 0.082889,0.0883 2.3257771,2.3257771 0 0 0 0.075531,0.0785 2.3257771,2.3257771 0 0 0 0.093679,0.0785 2.3257771,2.3257771 0 0 0 0.084066,0.0687 2.3257771,2.3257771 0 0 0 0.094856,0.0687 2.3257771,2.3257771 0 0 0 0.097112,0.0687 2.3257771,2.3257771 0 0 0 0.099368,0.0589 2.3257771,2.3257771 0 0 0 0.1033405,0.0589 2.3257771,2.3257771 0 0 0 0.1050472,0.049 2.3257771,2.3257771 0 0 0 0.106754,0.0491 2.3257771,2.3257771 0 0 0 0.1061852,0.0392 2.3257771,2.3257771 0 0 0 0.1209481,0.0392 2.3257771,2.3257771 0 0 0 0.106754,0.0196 2.3257771,2.3257771 0 0 0 0.1112957,0.0196 2.3257771,2.3257771 0 0 0 0.1198102,0.0196 2.3257771,2.3257771 0 0 0 0.1277557,0.01 2.3257771,2.3257771 0 0 0 0.040905,0.002 2.3257771,2.3257771 0 0 0 0.084066,0.004 2.3257771,2.3257771 0 0 0 0.066997,-0.004 2.3257771,2.3257771 0 0 0 0.1033405,-0.005 2.3257771,2.3257771 0 0 0 0.1294624,-0.01 2.3257771,2.3257771 0 0 0 0.1067541,-0.0196 2.3257771,2.3257771 0 0 0 0.1124239,-0.0196 2.3257771,2.3257771 0 0 0 0.1181033,-0.0294 2.3257771,2.3257771 0 0 0 0.1056162,-0.0294 2.3257771,2.3257771 0 0 0 0.1101578,-0.0392 2.3257771,2.3257771 0 0 0 0.1129928,-0.049 2.3257771,2.3257771 0 0 0 0.1101579,-0.0491 2.3257771,2.3257771 0 0 0 0.062485,-0.0294 2.3257771,2.3257771 0 0 0 0.024425,-0.01 l 16.1135026,-9.3027 a 2.3257771,2.3257771 0 0 0 0.05277,-0.0294 2.3257771,2.3257771 0 0 0 0.09368,-0.0589 2.3257771,2.3257771 0 0 0 0.09994,-0.0687 2.3257771,2.3257771 0 0 0 0.08407,-0.0687 2.3257771,2.3257771 0 0 0 0.09593,-0.0883 2.3257771,2.3257771 0 0 0 0.0721,-0.0687 2.3257771,2.3257771 0 0 0 0.09083,-0.0991 2.3257771,2.3257771 0 0 0 0.0619,-0.0785 2.3257771,2.3257771 0 0 0 0.08004,-0.10593 2.3257771,2.3257771 0 0 0 0.07043,-0.10398 2.3257771,2.3257771 0 0 0 0.03237,-0.049 2.3257771,2.3257771 0 0 0 0.01707,-0.0294 2.3257771,2.3257771 0 0 0 0.04198,-0.0785 2.3257771,2.3257771 0 0 0 0.05052,-0.0981 2.3257771,2.3257771 0 0 0 0.04375,-0.10398 2.3257771,2.3257771 0 0 0 0.04659,-0.11967 2.3257771,2.3257771 0 0 0 0.0307,-0.10006 2.3257771,2.3257771 0 0 0 0.03237,-0.11575 2.3257771,2.3257771 0 0 0 0.02325,-0.11673 2.3257771,2.3257771 0 0 0 0.0204,-0.11378 2.3257771,2.3257771 0 0 0 0.01197,-0.12458 2.3257771,2.3257771 0 0 0 0.0074,-0.10202 2.3257771,2.3257771 0 0 0 -5.68e-4,-0.13046 2.3257771,2.3257771 0 0 0 -0.0028,-0.10398 2.3257771,2.3257771 0 0 0 -0.01246,-0.12164 2.3257771,2.3257771 0 0 0 -0.01422,-0.11182 2.3257771,2.3257771 0 0 0 -0.02158,-0.10594 2.3257771,2.3257771 0 0 0 -0.02894,-0.12458 2.3257771,2.3257771 0 0 0 -0.03011,-0.0981 2.3257771,2.3257771 0 0 0 -0.0409,-0.12262 2.3257771,2.3257771 0 0 0 -0.04483,-0.10496 2.3257771,2.3257771 0 0 0 -0.05052,-0.11084 2.3257771,2.3257771 0 0 0 -0.02668,-0.049 2.3257771,2.3257771 0 0 0 -0.03522,-0.0687 2.3257771,2.3257771 0 0 0 -0.03404,-0.0491 2.3257771,2.3257771 0 0 0 -0.06072,-0.0981 2.3257771,2.3257771 0 0 0 -0.0721,-0.10006 2.3257771,2.3257771 0 0 0 -0.067,-0.0883 2.3257771,2.3257771 0 0 0 -0.08515,-0.0981 2.3257771,2.3257771 0 0 0 -0.07151,-0.0687 2.3257771,2.3257771 0 0 0 -0.0925,-0.0883 2.3257771,2.3257771 0 0 0 -0.08407,-0.0687 2.3257771,2.3257771 0 0 0 -0.09937,-0.0785 2.3257771,2.3257771 0 0 0 -0.105616,-0.0687 2.3257771,2.3257771 0 0 0 -0.0517,-0.0294 2.3257771,2.3257771 0 0 0 -0.02727,-0.0196 L 5.6053282,272.97506 a 2.3257771,2.3257771 0 0 0 -0.05503,-0.0294 2.3257771,2.3257771 0 0 0 -0.1005055,-0.0491 2.3257771,2.3257771 0 0 0 -0.1073131,-0.049 2.3257771,2.3257771 0 0 0 -0.1164064,-0.049 2.3257771,2.3257771 0 0 0 -0.094267,-0.0294 2.3257771,2.3257771 0 0 0 -0.1243519,-0.0392 2.3257771,2.3257771 0 0 0 -0.1129927,-0.0294 2.3257771,2.3257771 0 0 0 -0.1067541,-0.0196 2.3257771,2.3257771 0 0 0 -0.120948,-0.01 2.3257771,2.3257771 0 0 0 -0.1351421,-0.01 2.3257771,2.3257771 0 0 0 -0.055619,-0.002 2.3257771,2.3257771 0 0 0 -0.033548,-8.8e-4 z"
       id="path3715"
       inkscape:connector-curvature="0" />
  </g>
</svg>
