<?xml version="1.0" encoding="UTF-8" standalone="no"?>
<!-- Created with Inkscape (http://www.inkscape.org/) -->

<svg
   xmlns:dc="http://purl.org/dc/elements/1.1/"
   xmlns:cc="http://creativecommons.org/ns#"
   xmlns:rdf="http://www.w3.org/1999/02/22-rdf-syntax-ns#"
   xmlns:svg="http://www.w3.org/2000/svg"
   xmlns="http://www.w3.org/2000/svg"
   xmlns:sodipodi="http://sodipodi.sourceforge.net/DTD/sodipodi-0.dtd"
   xmlns:inkscape="http://www.inkscape.org/namespaces/inkscape"
   width="96"
   height="96"
   viewBox="0 0 25.399999 25.400001"
   version="1.1"
   id="svg8"
   inkscape:version="0.92.3 (2405546, 2018-03-11)"
   sodipodi:docname="play.svg">
  <defs
     id="defs2" />
  <sodipodi:namedview
     id="base"
     pagecolor="#ffffff"
     bordercolor="#666666"
     borderopacity="1.0"
     inkscape:pageopacity="0.0"
     inkscape:pageshadow="2"
     inkscape:zoom="5.6"
     inkscape:cx="86.696093"
     inkscape:cy="31.840808"
     inkscape:document-units="mm"
     inkscape:current-layer="layer1"
     showgrid="true"
     units="px"
     inkscape:window-width="1920"
     inkscape:window-height="1015"
     inkscape:window-x="0"
     inkscape:window-y="0"
     inkscape:window-maximized="1">
    <inkscape:grid
       type="xygrid"
       id="grid3713"
       spacingx="0.26458333"
       empspacing="4" />
  </sodipodi:namedview>
  <metadata
     id="metadata5">
    <rdf:RDF>
      <cc:Work
         rdf:about="">
        <dc:format>image/svg+xml</dc:format>
        <dc:type
           rdf:resource="http://purl.org/dc/dcmitype/StillImage" />
        <dc:title></dc:title>
        <cc:license
           rdf:resource="http://creativecommons.org/licenses/by-nc/4.0/" />
      </cc:Work>
      <cc:License
         rdf:about="http://creativecommons.org/licenses/by-nc/4.0/">
        <cc:permits
           rdf:resource="http://creativecommons.org/ns#Reproduction" />
        <cc:permits
           rdf:resource="http://creativecommons.org/ns#Distribution" />
        <cc:requires
           rdf:resource="http://creativecommons.org/ns#Notice" />
        <cc:requires
           rdf:resource="http://creativecommons.org/ns#Attribution" />
        <cc:prohibits
           rdf:resource="http://creativecommons.org/ns#CommercialUse" />
        <cc:permits
           rdf:resource="http://creativecommons.org/ns#DerivativeWorks" />
      </cc:License>
    </rdf:RDF>
  </metadata>
  <g
     inkscape:label="Layer 1"
     inkscape:groupmode="layer"
     id="layer1"
     transform="translate(0,-271.59998)">
    <path
       style="stroke-width:0.26458332;fill:#98fb98;fill-opacity:1"
       d="m 5.368625,273.71621 a 2.1166665,2.1166665 0 0 0 -0.084232,0.004 2.1166665,2.1166665 0 0 0 -0.099219,0.005 2.1166665,2.1166665 0 0 0 -0.116789,0.015 2.1166665,2.1166665 0 0 0 -0.095085,0.015 2.1166665,2.1166665 0 0 0 -0.095601,0.0217 2.1166665,2.1166665 0 0 0 -0.1142047,0.0289 2.1166665,2.1166665 0 0 0 -0.093018,0.0315 2.1166665,2.1166665 0 0 0 -0.100769,0.0367 2.1166665,2.1166665 0 0 0 -0.1069702,0.0486 2.1166665,2.1166665 0 0 0 -0.082682,0.0403 2.1166665,2.1166665 0 0 0 -0.1095542,0.0636 2.1166665,2.1166665 0 0 0 -0.070797,0.0434 2.1166665,2.1166665 0 0 0 -0.1023194,0.0739 2.1166665,2.1166665 0 0 0 -0.069763,0.0527 2.1166665,2.1166665 0 0 0 -0.088884,0.0796 2.1166665,2.1166665 0 0 0 -0.06873,0.0641 2.1166665,2.1166665 0 0 0 -0.073897,0.0796 2.1166665,2.1166665 0 0 0 -0.069247,0.0786 2.1166665,2.1166665 0 0 0 -0.068213,0.0909 2.1166665,2.1166665 0 0 0 -0.057361,0.0811 2.1166665,2.1166665 0 0 0 -0.032039,0.0507 2.1166665,2.1166665 0 0 0 -0.03359,0.0537 2.1166665,2.1166665 0 0 0 -0.025838,0.0501 2.1166665,2.1166665 0 0 0 -0.047026,0.0915 2.1166665,2.1166665 0 0 0 -0.043925,0.0977 2.1166665,2.1166665 0 0 0 -0.041341,0.10594 2.1166665,2.1166665 0 0 0 -0.028422,0.0858 2.1166665,2.1166665 0 0 0 -0.031523,0.11317 2.1166665,2.1166665 0 0 0 -0.023254,0.10284 2.1166665,2.1166665 0 0 0 -0.017053,0.0971 2.1166665,2.1166665 0 0 0 -0.013436,0.11007 2.1166665,2.1166665 0 0 0 -0.0093,0.12299 2.1166665,2.1166665 0 0 0 -0.00155,0.0506 2.1166665,2.1166665 0 0 0 -0.00103,0.0305 v 16.93334 a 2.1166665,2.1166665 0 0 0 0.0031,0.061 2.1166665,2.1166665 0 0 0 0.00465,0.0941 2.1166665,2.1166665 0 0 0 0.011886,0.11782 2.1166665,2.1166665 0 0 0 0.014986,0.0971 2.1166665,2.1166665 0 0 0 0.021187,0.10232 2.1166665,2.1166665 0 0 0 0.026872,0.10749 2.1166665,2.1166665 0 0 0 0.029972,0.0961 2.1166665,2.1166665 0 0 0 0.03669,0.10026 2.1166665,2.1166665 0 0 0 0.043925,0.10283 2.1166665,2.1166665 0 0 0 0.048576,0.10025 2.1166665,2.1166665 0 0 0 0.029972,0.0568 2.1166665,2.1166665 0 0 0 0.011886,0.0222 2.1166665,2.1166665 0 0 0 0.036174,0.0563 2.1166665,2.1166665 0 0 0 0.066663,0.10283 2.1166665,2.1166665 0 0 0 0.058394,0.077 2.1166665,2.1166665 0 0 0 0.069763,0.0873 2.1166665,2.1166665 0 0 0 0.075448,0.0811 2.1166665,2.1166665 0 0 0 0.068729,0.0703 2.1166665,2.1166665 0 0 0 0.085266,0.0749 2.1166665,2.1166665 0 0 0 0.076481,0.0641 2.1166665,2.1166665 0 0 0 0.0863,0.062 2.1166665,2.1166665 0 0 0 0.088367,0.0599 2.1166665,2.1166665 0 0 0 0.090434,0.0517 2.1166665,2.1166665 0 0 0 0.094051,0.0506 2.1166665,2.1166665 0 0 0 0.095601,0.0429 2.1166665,2.1166665 0 0 0 0.097152,0.0413 2.1166665,2.1166665 0 0 0 0.096635,0.032 2.1166665,2.1166665 0 0 0 0.1100709,0.0331 2.1166665,2.1166665 0 0 0 0.097152,0.0217 2.1166665,2.1166665 0 0 0 0.1012857,0.0207 2.1166665,2.1166665 0 0 0 0.1090372,0.0134 2.1166665,2.1166665 0 0 0 0.1162719,0.0109 2.1166665,2.1166665 0 0 0 0.037207,0.002 2.1166665,2.1166665 0 0 0 0.076481,0.003 2.1166665,2.1166665 0 0 0 0.060978,-0.003 2.1166665,2.1166665 0 0 0 0.094051,-0.005 2.1166665,2.1166665 0 0 0 0.1178222,-0.0119 2.1166665,2.1166665 0 0 0 0.097152,-0.015 2.1166665,2.1166665 0 0 0 0.1023191,-0.0212 2.1166665,2.1166665 0 0 0 0.107487,-0.0269 2.1166665,2.1166665 0 0 0 0.096118,-0.03 2.1166665,2.1166665 0 0 0 0.1002522,-0.0367 2.1166665,2.1166665 0 0 0 0.1028361,-0.0439 2.1166665,2.1166665 0 0 0 0.1002522,-0.0486 2.1166665,2.1166665 0 0 0 0.056844,-0.03 2.1166665,2.1166665 0 0 0 0.022221,-0.0119 l 14.664738,-8.46667 a 2.1166665,2.1166665 0 0 0 0.04806,-0.031 2.1166665,2.1166665 0 0 0 0.08527,-0.0553 2.1166665,2.1166665 0 0 0 0.09095,-0.0656 2.1166665,2.1166665 0 0 0 0.07648,-0.061 2.1166665,2.1166665 0 0 0 0.08733,-0.0775 2.1166665,2.1166665 0 0 0 0.06563,-0.0641 2.1166665,2.1166665 0 0 0 0.08268,-0.0899 2.1166665,2.1166665 0 0 0 0.05633,-0.0672 2.1166665,2.1166665 0 0 0 0.07286,-0.0966 2.1166665,2.1166665 0 0 0 0.06408,-0.0946 2.1166665,2.1166665 0 0 0 0.02946,-0.047 2.1166665,2.1166665 0 0 0 0.0155,-0.0248 2.1166665,2.1166665 0 0 0 0.03824,-0.0749 2.1166665,2.1166665 0 0 0 0.04599,-0.0889 2.1166665,2.1166665 0 0 0 0.03979,-0.0946 2.1166665,2.1166665 0 0 0 0.04238,-0.10852 2.1166665,2.1166665 0 0 0 0.0279,-0.0915 2.1166665,2.1166665 0 0 0 0.02946,-0.1049 2.1166665,2.1166665 0 0 0 0.02119,-0.10594 2.1166665,2.1166665 0 0 0 0.0186,-0.10387 2.1166665,2.1166665 0 0 0 0.01085,-0.11368 2.1166665,2.1166665 0 0 0 0.0067,-0.0925 2.1166665,2.1166665 0 0 0 -5.17e-4,-0.11885 2.1166665,2.1166665 0 0 0 -0.0026,-0.0946 2.1166665,2.1166665 0 0 0 -0.01137,-0.11059 2.1166665,2.1166665 0 0 0 -0.01292,-0.1018 2.1166665,2.1166665 0 0 0 -0.01964,-0.0966 2.1166665,2.1166665 0 0 0 -0.02635,-0.11318 2.1166665,2.1166665 0 0 0 -0.02739,-0.0884 2.1166665,2.1166665 0 0 0 -0.03721,-0.11111 2.1166665,2.1166665 0 0 0 -0.04082,-0.0956 2.1166665,2.1166665 0 0 0 -0.04599,-0.10077 2.1166665,2.1166665 0 0 0 -0.02429,-0.0455 2.1166665,2.1166665 0 0 0 -0.03204,-0.0605 2.1166665,2.1166665 0 0 0 -0.03101,-0.0481 2.1166665,2.1166665 0 0 0 -0.05529,-0.0853 2.1166665,2.1166665 0 0 0 -0.06563,-0.0909 2.1166665,2.1166665 0 0 0 -0.06098,-0.0765 2.1166665,2.1166665 0 0 0 -0.07751,-0.0873 2.1166665,2.1166665 0 0 0 -0.06511,-0.0667 2.1166665,2.1166665 0 0 0 -0.08423,-0.0775 2.1166665,2.1166665 0 0 0 -0.07648,-0.0646 2.1166665,2.1166665 0 0 0 -0.09043,-0.0677 2.1166665,2.1166665 0 0 0 -0.09612,-0.0651 2.1166665,2.1166665 0 0 0 -0.04703,-0.0295 2.1166665,2.1166665 0 0 0 -0.02481,-0.0155 L 6.4269583,273.99991 a 2.1166665,2.1166665 0 0 0 -0.050126,-0.0258 2.1166665,2.1166665 0 0 0 -0.091467,-0.047 2.1166665,2.1166665 0 0 0 -0.097669,-0.0439 2.1166665,2.1166665 0 0 0 -0.1059368,-0.0413 2.1166665,2.1166665 0 0 0 -0.085783,-0.0284 2.1166665,2.1166665 0 0 0 -0.1131715,-0.0315 2.1166665,2.1166665 0 0 0 -0.1028359,-0.0233 2.1166665,2.1166665 0 0 0 -0.097152,-0.0171 2.1166665,2.1166665 0 0 0 -0.1100709,-0.0134 2.1166665,2.1166665 0 0 0 -0.1229897,-0.009 2.1166665,2.1166665 0 0 0 -0.050643,-0.002 2.1166665,2.1166665 0 0 0 -0.030489,-0.001 z"
       id="path3715"
       inkscape:connector-curvature="0" />
  </g>
</svg>
