<?xml version="1.0" encoding="UTF-8" standalone="no"?>
<!-- Created with Inkscape (http://www.inkscape.org/) -->

<svg
   width="96"
   height="96"
   viewBox="0 0 25.399999 25.400001"
   version="1.1"
   id="svg8"
   inkscape:version="1.2.2 (b0a8486541, 2022-12-01)"
   sodipodi:docname="world_duplicate.svg"
   xmlns:inkscape="http://www.inkscape.org/namespaces/inkscape"
   xmlns:sodipodi="http://sodipodi.sourceforge.net/DTD/sodipodi-0.dtd"
   xmlns="http://www.w3.org/2000/svg"
   xmlns:svg="http://www.w3.org/2000/svg"
   xmlns:rdf="http://www.w3.org/1999/02/22-rdf-syntax-ns#"
   xmlns:cc="http://creativecommons.org/ns#"
   xmlns:dc="http://purl.org/dc/elements/1.1/">
  <defs
     id="defs2" />
  <sodipodi:namedview
     id="base"
     pagecolor="#ffffff"
     bordercolor="#666666"
     borderopacity="1.0"
     inkscape:pageopacity="0.0"
     inkscape:pageshadow="2"
     inkscape:zoom="3.959798"
     inkscape:cx="46.340748"
     inkscape:cy="45.835671"
     inkscape:document-units="mm"
     inkscape:current-layer="layer1"
     showgrid="true"
     units="px"
     inkscape:window-width="1920"
     inkscape:window-height="1016"
     inkscape:window-x="0"
     inkscape:window-y="0"
     inkscape:window-maximized="1"
     inkscape:showpageshadow="2"
     inkscape:pagecheckerboard="0"
     inkscape:deskcolor="#d1d1d1">
    <inkscape:grid
       type="xygrid"
       id="grid3713"
       spacingx="0.26458333"
       empspacing="4" />
  </sodipodi:namedview>
  <metadata
     id="metadata5">
    <rdf:RDF>
      <cc:Work
         rdf:about="">
        <dc:format>image/svg+xml</dc:format>
        <dc:type
           rdf:resource="http://purl.org/dc/dcmitype/StillImage" />
        <cc:license
           rdf:resource="http://creativecommons.org/licenses/by-nc/4.0/" />
      </cc:Work>
      <cc:License
         rdf:about="http://creativecommons.org/licenses/by-nc/4.0/">
        <cc:permits
           rdf:resource="http://creativecommons.org/ns#Reproduction" />
        <cc:permits
           rdf:resource="http://creativecommons.org/ns#Distribution" />
        <cc:requires
           rdf:resource="http://creativecommons.org/ns#Notice" />
        <cc:requires
           rdf:resource="http://creativecommons.org/ns#Attribution" />
        <cc:prohibits
           rdf:resource="http://creativecommons.org/ns#CommercialUse" />
        <cc:permits
           rdf:resource="http://creativecommons.org/ns#DerivativeWorks" />
      </cc:License>
    </rdf:RDF>
  </metadata>
  <g
     inkscape:label="Layer 1"
     inkscape:groupmode="layer"
     id="layer1"
     transform="translate(0,-271.59998)">
    <circle
       style="fill:#5599ff;fill-opacity:0.80000001;stroke:none;stroke-width:1.41111;stroke-linecap:round;stroke-miterlimit:4;stroke-dasharray:none;stroke-opacity:1"
       id="path841"
       cx="8.4666672"
       cy="280.06665"
       r="8.4666672" />
    <path
       style="fill:#98fb98;fill-opacity:0.80000001;stroke:none;stroke-width:0.176389px;stroke-linecap:butt;stroke-linejoin:miter;stroke-opacity:1"
       d="m 4.5027218,273.43256 c -0.5470507,-0.0279 -1.0051286,0.38672 -1.4358252,0.66606 -0.4708839,0.35187 -1.1099179,0.65328 -1.169987,1.31489 -0.1251424,0.80215 -0.024452,1.63875 -0.312919,2.41645 -0.4060694,0.52894 -0.462997,1.3252 0.317594,1.53094 0.4647138,0.11513 0.9981553,0.96553 1.4400225,0.43472 0.3463489,-0.63797 0.1126956,-1.57209 0.8130177,-1.99947 0.6556862,-0.27531 1.4796077,-0.12905 2.0161751,-0.68452 0.48059,-0.46293 1.1296982,-0.92569 1.1295862,-1.66399 0.084649,-0.92768 -0.7775262,-1.678 -1.6559416,-1.73099 -0.3718587,-0.13005 -0.8049867,-0.0505 -1.1417227,-0.28409 z"
       id="path1419"
       inkscape:connector-curvature="0" />
    <path
       style="fill:#98fb98;fill-opacity:0.80000001;stroke:none;stroke-width:0.179436px;stroke-linecap:butt;stroke-linejoin:miter;stroke-opacity:1"
       d="m 15.449564,275.46024 c -0.23584,-0.56057 -0.520436,-1.11192 -1.038192,-1.30617 -0.899139,0.31813 -0.890458,-0.69179 -1.711372,-0.43742 -0.836822,0.57321 -1.715388,0.96403 -2.636107,2.05775 -0.9344575,1.17936 -1.7209695,2.51319 -2.2645708,3.68325 -0.6784067,1.58858 0.2370093,1.85257 1.4244587,1.04625 1.1606311,-0.7514 2.1494471,-1.1222 3.1393791,-1.49616 1.136326,-0.43696 2.46974,-1.92656 3.086404,-3.5475 z"
       id="path1421"
       inkscape:connector-curvature="0" />
    <path
       style="fill:#98fb98;fill-opacity:0.80000001;stroke:none;stroke-width:0.189652px;stroke-linecap:butt;stroke-linejoin:miter;stroke-opacity:1"
       d="m 6.1698129,284.13692 c -0.4768793,0.0238 -1.0002333,-0.12837 -1.2943642,-0.59624 -0.7236468,-0.59316 -1.4931686,-1.2294 -2.3968105,-1.35544 -0.4625468,-0.0783 -0.912575,0.29177 -1.0177966,0.81506 0.27569,1.5336 1.3690814,2.63672 2.498663,3.37545 0.7584253,0.49945 1.5672183,0.88637 2.3192055,1.40041 0.870642,0.5558 1.8832187,1.05674 2.8935121,0.75716 0.8012693,-0.41055 1.7031718,-0.79246 2.2118488,-1.66984 0.178125,-0.34 0.271457,-0.80721 0.121487,-1.17262 -0.689417,-0.87581 -1.6177458,-1.631 -2.6722352,-1.68555 -0.253802,0.0212 -0.5890746,-0.0176 -0.740602,0.26725 -0.046787,0.2581 -1.3847547,-0.14512 -1.9229385,-0.13584 z"
       id="path1423"
       inkscape:connector-curvature="0"
       sodipodi:nodetypes="cccccccccccc" />
    <path
       style="fill:#98fb98;fill-opacity:1;stroke:none;stroke-width:0.176389px;stroke-linecap:butt;stroke-linejoin:miter;stroke-opacity:1"
       d="m 13.405556,281.47776 c -1.535489,-0.0685 -2.009912,2.11694 -0.520527,2.61235 1.488105,0.66056 2.041667,-1.46554 0.998013,-2.28577 -0.132918,-0.1416 -0.295567,-0.2569 -0.477486,-0.32658 z"
       id="path2025"
       inkscape:connector-curvature="0" />
    <circle
       style="fill:#5599ff;fill-opacity:1;stroke:none;stroke-width:1.41111;stroke-linecap:round;stroke-miterlimit:4;stroke-dasharray:none;stroke-opacity:1"
       id="path841-6"
       cx="16.904797"
       cy="288.3931"
       r="8.4666672" />
    <path
       style="fill:#98fb98;fill-opacity:1;stroke:none;stroke-width:0.176389px;stroke-linecap:butt;stroke-linejoin:miter;stroke-opacity:1"
       d="m 12.940853,281.759 c -0.547051,-0.0279 -1.005129,0.38671 -1.435826,0.66605 -0.470884,0.35187 -1.109917,0.65328 -1.169987,1.31489 -0.125142,0.80216 -0.02445,1.63876 -0.312919,2.41646 -0.406069,0.52893 -0.4629966,1.3252 0.317594,1.53094 0.464714,0.11512 0.998156,0.96552 1.440023,0.43472 0.346349,-0.63798 0.112695,-1.5721 0.813018,-1.99948 0.655686,-0.27531 1.479607,-0.12904 2.016175,-0.68452 0.48059,-0.46293 1.129698,-0.92569 1.129586,-1.66398 0.08465,-0.92768 -0.777526,-1.678 -1.655942,-1.731 -0.371858,-0.13005 -0.804986,-0.0505 -1.141722,-0.28408 z"
       id="path1419-7"
       inkscape:connector-curvature="0" />
    <path
       style="fill:#98fb98;fill-opacity:1;stroke:none;stroke-width:0.179436px;stroke-linecap:butt;stroke-linejoin:miter;stroke-opacity:1"
       d="m 23.887695,283.78668 c -0.235841,-0.56058 -0.520436,-1.11192 -1.038193,-1.30618 -0.899138,0.31813 -0.890457,-0.69179 -1.711371,-0.43742 -0.836823,0.57321 -1.715388,0.96404 -2.636107,2.05776 -0.934458,1.17935 -1.72097,2.51318 -2.264571,3.68324 -0.678407,1.58858 0.237009,1.85258 1.424459,1.04625 1.160631,-0.75139 2.149447,-1.12219 3.139378,-1.49616 1.136327,-0.43696 2.46974,-1.92656 3.086405,-3.54749 z"
       id="path1421-5"
       inkscape:connector-curvature="0" />
    <path
       style="fill:#98fb98;fill-opacity:1;stroke:none;stroke-width:0.189652px;stroke-linecap:butt;stroke-linejoin:miter;stroke-opacity:1"
       d="m 14.607944,292.46336 c -0.47688,0.0238 -1.000234,-0.12838 -1.294365,-0.59624 -0.723646,-0.59317 -1.493168,-1.22941 -2.39681,-1.35544 -0.462547,-0.0783 -0.912575,0.29176 -1.0177966,0.81505 0.2756896,1.5336 1.3690816,2.63673 2.4986626,3.37545 0.758426,0.49946 1.567219,0.88638 2.319206,1.40042 0.870642,0.5558 1.883219,1.05673 2.893512,0.75715 0.801269,-0.41055 1.703171,-0.79246 2.211849,-1.66984 0.178124,-0.34 0.271456,-0.80721 0.121487,-1.17262 -0.689417,-0.87581 -1.617746,-1.63099 -2.672235,-1.68555 -0.253802,0.0212 -0.589075,-0.0176 -0.740602,0.26726 -0.04679,0.2581 -1.384755,-0.14513 -1.922939,-0.13584 z"
       id="path1423-3"
       inkscape:connector-curvature="0"
       sodipodi:nodetypes="cccccccccccc" />
    <path
       style="fill:#98fb98;fill-opacity:1;stroke:none;stroke-width:0.176389px;stroke-linecap:butt;stroke-linejoin:miter;stroke-opacity:1"
       d="m 21.843686,289.8042 c -1.535488,-0.0685 -2.009911,2.11693 -0.520526,2.61234 1.488104,0.66056 2.041666,-1.46554 0.998012,-2.28577 -0.132918,-0.1416 -0.295566,-0.2569 -0.477486,-0.32657 z"
       id="path2025-5"
       inkscape:connector-curvature="0" />
  </g>
</svg>
