<?xml version="1.0" encoding="UTF-8" standalone="no"?>
<!-- Created with Inkscape (http://www.inkscape.org/) -->

<svg
   xmlns:dc="http://purl.org/dc/elements/1.1/"
   xmlns:cc="http://creativecommons.org/ns#"
   xmlns:rdf="http://www.w3.org/1999/02/22-rdf-syntax-ns#"
   xmlns:svg="http://www.w3.org/2000/svg"
   xmlns="http://www.w3.org/2000/svg"
   xmlns:sodipodi="http://sodipodi.sourceforge.net/DTD/sodipodi-0.dtd"
   xmlns:inkscape="http://www.inkscape.org/namespaces/inkscape"
   width="128"
   height="128"
   viewBox="0 0 33.866666 33.866668"
   version="1.1"
   id="svg8"
   inkscape:version="0.92.3 (2405546, 2018-03-11)"
   sodipodi:docname="traintastic-logo-black-white-circle.svg"
   inkscape:export-filename="/home/reinder/Dropbox/traintastic/facebook.png"
   inkscape:export-xdpi="192.00002"
   inkscape:export-ydpi="192.00002">
  <defs
     id="defs2" />
  <sodipodi:namedview
     id="base"
     pagecolor="#ffffff"
     bordercolor="#666666"
     borderopacity="1.0"
     inkscape:pageopacity="0.0"
     inkscape:pageshadow="2"
     inkscape:zoom="2.8"
     inkscape:cx="60.67345"
     inkscape:cy="85.239891"
     inkscape:document-units="mm"
     inkscape:current-layer="layer1"
     showgrid="true"
     units="px"
     inkscape:window-width="1920"
     inkscape:window-height="1015"
     inkscape:window-x="0"
     inkscape:window-y="0"
     inkscape:window-maximized="1">
    <inkscape:grid
       type="xygrid"
       id="grid815"
       spacingx="0.26458334"
       spacingy="0.26458334"
       empspacing="4" />
  </sodipodi:namedview>
  <metadata
     id="metadata5">
    <rdf:RDF>
      <cc:Work
         rdf:about="">
        <dc:format>image/svg+xml</dc:format>
        <dc:type
           rdf:resource="http://purl.org/dc/dcmitype/StillImage" />
        <dc:title />
      </cc:Work>
    </rdf:RDF>
  </metadata>
  <g
     inkscape:label="Layer 1"
     inkscape:groupmode="layer"
     id="layer1"
     transform="translate(0,-263.13332)">
    <circle
       style="fill:#ffffff;fill-opacity:1;stroke:none;stroke-width:1.05833328;stroke-linecap:round;stroke-linejoin:round;stroke-miterlimit:4;stroke-dasharray:none;stroke-opacity:1"
       id="path815"
       cx="16.933332"
       cy="280.06665"
       r="16.933332" />
    <g
       id="layer1-1"
       transform="matrix(-0.73789299,0,0,0.73789299,29.428321,75.319087)">
      <path
         id="path821-2"
         style="display:inline;fill:#000006;fill-opacity:1;fill-rule:evenodd;stroke:none;stroke-width:0.02645833;stroke-linecap:butt;stroke-linejoin:miter;stroke-miterlimit:4;stroke-dasharray:none;stroke-opacity:1"
         d="m 16.933333,296.99999 c -3.174999,0 -3.174999,0 -5.291666,-0.52917 -1.058333,-0.26458 -1.5875,-0.52916 -1.8520834,-1.5875 -0.2645834,-2.11667 -0.2645834,-3.175 -0.2645834,-4.23333 0,-0.79375 0,-1.05834 0.5839648,-1.2841 0.209373,-0.0809 0.464217,-0.16857 1.003535,-0.3034 1.5875,-0.52917 1.5875,-0.52917 2.38125,-0.79375 1.058334,-0.52917 1.058334,-0.79375 1.322916,-1.85209 0.529168,-2.38124 0.529168,-2.38125 0.529168,-6.35 v -6.87916 c 0,-0.52917 -0.269307,-4.01123 -1.058334,-4.7625 -0.529166,-0.52917 -3.351389,-1.23473 -5.0270831,-1.85209 -0.9701389,-0.26458 -1.9402778,-0.52916 -2.9104167,-0.79375 -1.3229167,-0.26458 -2.2930556,-0.17639 -3.4395835,-0.26458 -0.2645833,0 -0.79375,-0.26458 -0.79375,-0.79375 v -1.05833 c 0,-0.29175 0.2645833,-0.52917 0.5291667,-0.52917 H 16.933333 Z m 10e-7,0 c 3.174999,0 3.174999,0 5.291666,-0.52917 1.058333,-0.26458 1.5875,-0.52916 1.852083,-1.5875 0.264584,-2.11667 0.264584,-3.175 0.264584,-4.23333 0,-0.79375 0,-1.05834 -0.583965,-1.2841 -0.209373,-0.0809 -0.464217,-0.16857 -1.003535,-0.3034 -1.5875,-0.52917 -1.5875,-0.52917 -2.38125,-0.79375 -1.058334,-0.52917 -1.058334,-0.79375 -1.322916,-1.85209 -0.529168,-2.38124 -0.529168,-2.38125 -0.529168,-6.35 v -6.87916 c 0,-0.52917 0.269307,-4.01123 1.058334,-4.7625 0.529166,-0.52917 3.351389,-1.23473 5.027083,-1.85209 0.970139,-0.26458 1.940278,-0.52916 2.910417,-0.79375 1.322916,-0.26458 2.293055,-0.17639 3.439583,-0.26458 0.264584,0 0.79375,-0.26458 0.79375,-0.79375 v -1.05833 c 0,-0.29175 -0.264583,-0.52917 -0.529166,-0.52917 h -14.2875 z"
         inkscape:connector-curvature="0" />
    </g>
  </g>
</svg>
